<svg width="13" height="10" viewBox="0 0 13 10" fill="none" xmlns="http://www.w3.org/2000/svg">
<path d="M11.9016 0.173828H2.01981C1.4395 0.173828 0.966064 0.647172 0.966064 1.22852V8.25977C0.966064 8.83914 1.43739 9.31445 2.01981 9.31445H11.9016C12.4804 9.31445 12.9553 8.8427 12.9553 8.25977V1.22852C12.9553 0.649141 12.484 0.173828 11.9016 0.173828ZM11.7561 0.876953L6.98304 5.65429L2.16871 0.876953H11.7561ZM1.66856 8.11417V1.37076L5.05176 4.72795L1.66856 8.11417ZM2.1653 8.61133L5.55062 5.22297L6.73684 6.40005C6.87415 6.53631 7.09574 6.53587 7.23249 6.39897L8.38911 5.24132L11.7561 8.61133H2.1653ZM12.2528 8.11415L8.88584 4.74414L12.2528 1.37411V8.11415Z" fill="#F6762C"/>
</svg>
